<svg xmlns="http://www.w3.org/2000/svg" viewBox="0 0 24 24" aria-hidden="true" fill="currentColor">
    <path
        fill-rule="evenodd"
        clip-rule="evenodd"
        d="M12 2C6.5 2 2 6.5 2 12s4.5 10 10 10c.926 0 1.648-.746 1.648-1.688 0-.437-.18-.835-.437-1.125-.29-.289-.438-.652-.438-1.125a1.64 1.64 0 0 1 1.668-1.668h1.996c3.051 0 5.555-2.503 5.555-5.554C21.965 6.012 17.461 2 12 2zM8.5 7.5m-1.5 0a1.5 1.5 0 1 0 3 0a1.5 1.5 0 1 0-3 0M13.5 6.5m-1.5 0a1.5 1.5 0 1 0 3 0a1.5 1.5 0 1 0-3 0M17.5 10.5m-1.5 0a1.5 1.5 0 1 0 3 0a1.5 1.5 0 1 0-3 0M6.5 12.5m-1.5 0a1.5 1.5 0 1 0 3 0a1.5 1.5 0 1 0-3 0"
    />
</svg>
